<svg width="663" height="316" viewBox="0 0 663 316" fill="none" xmlns="http://www.w3.org/2000/svg">
<g clip-path="url(#clip0_6_3)">
<path d="M197.244 260.185C194.965 279.526 186.584 297.222 177.642 314.268C177.346 314.848 177.042 315.42 176.731 316H83.7985C81.919 315.472 80.0637 314.891 78.2162 314.268C67.7198 310.807 57.8104 305.527 48.8731 298.633C14.6834 271.956 1.52726 221.545 7.46962 176.375C11.1646 148.312 22.537 119.659 44.6822 104.545C56.3748 96.5499 71.3941 93.9515 84.8541 96.9224C85.2063 96.9917 85.5582 97.0783 85.9179 97.1562C97.4984 99.9799 107.815 106.996 113.686 118.299C124.242 138.611 117.956 163.773 112.766 186.379C107.591 208.986 104.784 236.045 119.804 252.718C114.845 236.911 119.74 218.055 131.584 207.366C140.533 199.302 152.994 196.279 164.358 198.783C165.446 199.034 166.518 199.32 167.573 199.666C170.125 200.475 172.585 201.591 174.907 202.992C192.622 213.707 199.796 238.383 197.244 260.185Z" fill="#F2F2F2"/>
<path d="M142.141 314.268C144.716 314.917 147.299 315.489 149.899 316H135.847C134.007 315.463 132.176 314.891 130.361 314.268C126.37 312.916 122.44 311.366 118.572 309.616C103.057 302.566 88.765 291.981 77.9523 277.898C72.6641 271.074 68.3459 263.434 65.1402 255.23C61.664 245.958 59.4548 236.186 58.5824 226.223C56.6228 205.781 58.6222 184.777 62.357 164.699C66.2113 143.89 72.4329 123.678 80.8796 104.527C81.8952 102.232 82.9456 99.9511 84.0306 97.6846C84.1052 97.498 84.2182 97.3324 84.3609 97.2003C84.5036 97.0682 84.6723 96.9731 84.8541 96.9224C85.2233 96.8449 85.6058 96.9289 85.9179 97.1562C86.2924 97.3889 86.5701 97.7686 86.6937 98.2167C86.8172 98.6648 86.7771 99.1471 86.5817 99.5641C77.8728 117.958 71.2712 137.435 66.9236 157.562C62.669 177.198 60.2537 197.743 61.0773 217.933C61.8611 236.798 66.412 255.352 76.7367 270.778C86.1658 284.862 99.1857 295.966 113.59 303.527C122.706 308.251 132.283 311.854 142.141 314.268Z" fill="white"/>
<path d="M172.98 316H168.837C168.373 315.428 167.925 314.848 167.485 314.268C158.049 301.85 151.656 287.056 148.899 271.254C145.55 251.534 148.155 231.17 156.329 213.178C158.609 208.133 161.296 203.316 164.358 198.783C165.446 199.034 166.518 199.32 167.573 199.666C159.518 211.224 154.101 224.681 151.762 238.938C149.676 252.297 150.369 265.993 153.792 279.025C157.215 292.057 163.282 304.098 171.548 314.268C172.012 314.848 172.492 315.428 172.98 316Z" fill="white"/>
<path d="M546.179 301.269C546.78 306.374 548.992 311.044 551.352 315.543C551.43 315.696 551.51 315.847 551.593 316H576.119C576.615 315.861 577.105 315.707 577.592 315.543C580.363 314.629 582.978 313.236 585.337 311.417C594.36 304.376 597.832 291.072 596.264 279.15C595.289 271.744 592.287 264.182 586.443 260.193C583.269 258.1 579.482 257.381 575.841 258.181C575.748 258.2 575.655 258.223 575.56 258.243C574.044 258.561 572.607 259.222 571.344 260.184C570.081 261.145 569.02 262.386 568.231 263.823C565.445 269.184 567.104 275.824 568.474 281.791C569.84 287.757 570.581 294.898 566.617 299.299C567.198 297.459 567.316 295.484 566.959 293.578C566.601 291.672 565.782 289.903 564.585 288.454C563.387 287.004 561.855 285.926 560.146 285.331C558.436 284.735 556.611 284.643 554.858 285.064C554.571 285.131 554.288 285.206 554.009 285.297C553.336 285.511 552.687 285.805 552.074 286.175C547.399 289.003 545.505 295.516 546.179 301.269Z" fill="#F2F2F2"/>
<path d="M560.722 315.543C560.042 315.714 559.36 315.865 558.674 316H562.383C562.868 315.858 563.352 315.707 563.831 315.543C564.884 315.186 565.921 314.777 566.942 314.315C571.082 312.495 574.759 309.624 577.662 305.944C579.058 304.143 580.197 302.127 581.043 299.962C581.961 297.515 582.544 294.936 582.774 292.306C583.195 286.87 582.859 281.397 581.778 276.069C580.761 270.577 579.119 265.243 576.89 260.188C576.621 259.583 576.344 258.981 576.058 258.383C576.038 258.333 576.008 258.29 575.971 258.255C575.933 258.22 575.889 258.195 575.841 258.181C575.743 258.161 575.642 258.183 575.56 258.243C575.461 258.305 575.388 258.405 575.355 258.523C575.322 258.641 575.333 258.769 575.385 258.879C577.683 263.733 579.425 268.873 580.573 274.185C581.755 279.396 582.274 284.756 582.116 290.118C582.031 295.106 580.594 299.956 577.983 304.065C575.444 307.766 572.104 310.734 568.257 312.708C565.851 313.955 563.323 314.906 560.722 315.543Z" fill="white"/>
<path d="M552.583 316H553.676C553.798 315.849 553.917 315.696 554.033 315.543C556.523 312.266 558.21 308.361 558.938 304.191C559.822 298.986 559.134 293.612 556.977 288.863C556.375 287.532 555.666 286.261 554.858 285.064C554.571 285.131 554.288 285.206 554.009 285.297C556.135 288.348 557.565 291.899 558.182 295.662C558.733 299.188 558.55 302.802 557.646 306.242C556.743 309.681 555.142 312.859 552.96 315.543C552.838 315.696 552.711 315.849 552.583 316Z" fill="white"/>
<path d="M325.11 184.066H248.348L247.534 158.505C247.499 157.397 247.686 156.294 248.082 155.271C248.478 154.249 249.074 153.332 249.829 152.583C250.584 151.834 251.48 151.271 252.455 150.933C253.429 150.595 254.461 150.489 255.477 150.624L300.147 156.548H300.152C306.775 156.567 313.12 159.429 317.798 164.506C322.476 169.583 325.105 176.461 325.11 183.633V184.066Z" fill="#34D186"/>
<path d="M290.897 93.3971H237.359C236.647 93.3969 235.942 93.5486 235.284 93.8436C234.627 94.1386 234.029 94.5711 233.525 95.1164C233.022 95.6617 232.623 96.309 232.35 97.0215C232.078 97.734 231.938 98.4976 231.938 99.2688V157.251C231.938 158.022 232.078 158.786 232.35 159.498C232.623 160.211 233.022 160.858 233.525 161.404C234.029 161.949 234.627 162.381 235.284 162.676C235.942 162.971 236.647 163.123 237.359 163.123H290.897C291.609 163.123 292.314 162.971 292.972 162.676C293.63 162.381 294.228 161.949 294.731 161.404C295.234 160.858 295.634 160.211 295.906 159.499C296.179 158.786 296.319 158.022 296.318 157.251V99.2688C296.319 98.4976 296.179 97.734 295.906 97.0215C295.634 96.309 295.234 95.6617 294.731 95.1164C294.228 94.5711 293.63 94.1386 292.972 93.8436C292.314 93.5486 291.609 93.3969 290.897 93.3971Z" fill="#CCCCCC"/>
<path d="M278.839 136.754L253.562 142.085C252.063 142.4 250.509 142.057 249.243 141.133C247.977 140.208 247.1 138.777 246.807 137.154L244.864 126.348C244.573 124.724 244.89 123.042 245.743 121.67C246.597 120.299 247.918 119.35 249.417 119.032L274.694 113.701C276.194 113.386 277.747 113.729 279.013 114.653C280.28 115.578 281.156 117.009 281.449 118.632L283.393 129.438C283.683 131.062 283.366 132.744 282.513 134.116C281.659 135.487 280.338 136.436 278.839 136.754Z" fill="#3F3D56"/>
<path d="M273.782 123.988L254.492 128.056C254.139 128.131 253.773 128.05 253.475 127.832C253.177 127.615 252.971 127.278 252.902 126.896C252.833 126.514 252.908 126.118 253.109 125.795C253.309 125.472 253.621 125.249 253.973 125.174L273.264 121.106C273.617 121.031 273.983 121.112 274.281 121.329C274.579 121.547 274.785 121.884 274.854 122.266C274.922 122.648 274.848 123.044 274.647 123.367C274.446 123.69 274.135 123.913 273.782 123.988Z" fill="white"/>
<path d="M270.033 130.013L260.055 132.117C259.702 132.191 259.336 132.111 259.038 131.893C258.74 131.676 258.534 131.339 258.465 130.957C258.397 130.575 258.471 130.179 258.672 129.856C258.873 129.533 259.184 129.31 259.537 129.235L269.514 127.131C269.689 127.094 269.869 127.095 270.043 127.133C270.218 127.172 270.383 127.247 270.531 127.354C270.679 127.462 270.805 127.6 270.904 127.761C271.002 127.922 271.07 128.102 271.104 128.291C271.138 128.48 271.137 128.675 271.102 128.864C271.066 129.053 270.997 129.232 270.897 129.392C270.798 129.552 270.67 129.689 270.522 129.796C270.374 129.902 270.207 129.976 270.033 130.013Z" fill="white"/>
<path d="M296.318 99.2688V106.975H231.938V99.2688C231.938 98.4976 232.078 97.734 232.35 97.0215C232.623 96.309 233.022 95.6617 233.525 95.1164C234.029 94.5711 234.627 94.1386 235.284 93.8436C235.942 93.5486 236.647 93.3969 237.359 93.3971H290.897C291.609 93.3969 292.314 93.5486 292.972 93.8436C293.63 94.1386 294.227 94.5711 294.731 95.1164C295.234 95.6617 295.634 96.309 295.906 97.0215C296.179 97.734 296.319 98.4976 296.318 99.2688Z" fill="#B3B3B3"/>
<path d="M424.88 109.389C424.509 108.089 423.878 106.894 423.034 105.887C422.19 104.88 421.152 104.085 419.993 103.56C418.835 103.034 417.584 102.79 416.329 102.845C415.074 102.899 413.845 103.251 412.729 103.876L339.074 75.2554L335.83 95.1833L409.251 117.05C410.344 119.011 412.063 120.469 414.082 121.149C416.102 121.828 418.281 121.682 420.208 120.738C422.134 119.793 423.674 118.116 424.535 116.025C425.396 113.933 425.519 111.572 424.88 109.389Z" fill="#FFB8B8"/>
<path opacity="0.2" d="M424.88 109.389C424.509 108.089 423.878 106.894 423.034 105.887C422.19 104.88 421.152 104.085 419.993 103.56C418.835 103.034 417.584 102.79 416.329 102.845C415.074 102.899 413.845 103.251 412.729 103.876L339.074 75.2554L335.83 95.1833L409.251 117.05C410.344 119.011 412.063 120.469 414.082 121.149C416.102 121.828 418.281 121.682 420.208 120.738C422.134 119.793 423.674 118.116 424.535 116.025C425.396 113.933 425.519 111.572 424.88 109.389Z" fill="black"/>
<path d="M352.148 78.8866L345.192 98.566C344.994 99.1259 344.687 99.633 344.292 100.053C343.897 100.473 343.423 100.795 342.902 100.999C342.381 101.202 341.826 101.282 341.275 101.232C340.723 101.182 340.188 101.004 339.705 100.71L322.801 90.4063C320.162 89.2933 318.038 87.0924 316.895 84.286C315.752 81.4796 315.683 78.2968 316.703 75.4353C317.723 72.5739 319.749 70.2673 322.337 69.0213C324.925 67.7753 327.864 67.6915 330.509 68.7883L349.385 73.3223C349.926 73.4523 350.434 73.7069 350.875 74.0688C351.316 74.4307 351.681 74.8913 351.943 75.4194C352.205 75.9475 352.359 76.5305 352.394 77.1288C352.43 77.7271 352.345 78.3267 352.148 78.8866Z" fill="#34D186"/>
<path d="M430.678 127.61L404.286 140.603L407.751 154.731C414.442 182.013 416.218 210.435 412.981 238.445L432.277 242.81L448.273 198.635L442.674 148.398L430.678 127.61Z" fill="#34D186"/>
<path d="M482.462 193.005C465.122 193.005 450.991 206.658 450.305 223.754H514.62C513.934 206.658 499.803 193.005 482.462 193.005Z" fill="#3F3D56"/>
<path d="M468.964 195.952C468.061 118.778 427.479 125.878 427.479 125.878C427.479 125.878 428.238 149.9 428.603 150.647C454.463 203.638 411.784 265.762 357.456 254.334C356.432 254.118 355.448 253.899 354.504 253.678C347.62 252.121 341.543 247.783 337.507 241.546C333.471 235.309 331.781 227.642 332.78 220.103C338.132 173.559 311.514 174.383 311.514 174.383H272.592L252.38 154.681C251.666 153.986 250.806 153.49 249.875 153.238C248.944 152.986 247.97 152.984 247.038 153.234C246.106 153.484 245.245 153.977 244.53 154.67C243.815 155.363 243.268 156.236 242.936 157.211L240.335 164.855C240.335 164.855 201.947 169.186 205.146 209.896H217.014C216.986 211.052 217.028 212.21 217.142 213.36L305.716 212.58C310.908 212.535 315.491 217.091 315.513 222.714C315.518 224.083 315.268 225.439 314.778 226.701C314.289 227.963 313.569 229.105 312.662 230.059C311.755 231.013 310.68 231.759 309.501 232.252C308.322 232.746 307.063 232.977 305.8 232.931L291.52 232.416C287.121 253.637 297.918 267.928 309.814 276.915C321.015 285.253 334.306 289.674 347.897 289.582H386.691C437.076 289.582 445.873 243.676 445.873 243.676C472.265 231.549 468.964 195.952 468.964 195.952Z" fill="#3F3D56"/>
<path d="M480.063 314.701C504.908 314.701 525.049 292.887 525.049 265.979C525.049 239.071 504.908 217.258 480.063 217.258C455.218 217.258 435.077 239.071 435.077 265.979C435.077 292.887 455.218 314.701 480.063 314.701Z" fill="#3F3D56"/>
<path d="M480.063 277.921C486.153 277.921 491.089 272.574 491.089 265.979C491.089 259.384 486.153 254.038 480.063 254.038C473.973 254.038 469.037 259.384 469.037 265.979C469.037 272.574 473.973 277.921 480.063 277.921Z" fill="white"/>
<path d="M252.932 314.701C281.531 314.701 304.716 289.591 304.716 258.617C304.716 227.643 281.531 202.533 252.932 202.533C224.332 202.533 201.147 227.643 201.147 258.617C201.147 289.591 224.332 314.701 252.932 314.701Z" fill="#3F3D56"/>
<path d="M252.931 272.363C259.941 272.363 265.624 266.209 265.624 258.617C265.624 251.025 259.941 244.871 252.931 244.871C245.922 244.871 240.239 251.025 240.239 258.617C240.239 266.209 245.922 272.363 252.931 272.363Z" fill="white"/>
<path d="M404.361 144.442L394.865 116.508C394.37 115.053 394.145 113.506 394.202 111.955C394.259 110.405 394.598 108.883 395.198 107.474C395.799 106.066 396.65 104.799 397.702 103.747C398.755 102.695 399.988 101.877 401.332 101.341L428.556 90.4873C430.921 89.5441 433.435 89.1146 435.953 89.2234C438.472 89.3322 440.946 89.9771 443.234 91.1214C445.522 92.2657 447.58 93.8869 449.29 95.8925C450.999 97.8981 452.328 100.249 453.198 102.81C453.984 105.109 454.385 107.541 454.383 109.993C454.373 113.105 453.722 116.176 452.479 118.983C451.236 121.789 449.43 124.26 447.195 126.216C445.58 127.619 443.765 128.728 441.82 129.498L404.361 144.442Z" fill="#3F3D56"/>
<path d="M453.983 109.993C453.981 113.042 453.347 116.052 452.129 118.801C450.911 121.55 449.14 123.968 446.945 125.878C443.577 124.916 440.444 123.171 437.762 120.765C435.08 118.359 432.914 115.349 431.415 111.945C429.915 108.541 429.119 104.824 429.08 101.052C429.041 97.2807 429.761 93.5453 431.19 90.1057C433.933 89.4596 436.775 89.4871 439.507 90.1862C442.239 90.8853 444.792 92.2382 446.978 94.1455C449.164 96.0529 450.928 98.4663 452.14 101.209C453.352 103.951 453.982 106.952 453.983 109.993Z" fill="#34D186"/>
<path d="M211.944 215.526C218.128 215.526 223.14 208.933 223.14 200.801C223.14 192.669 218.128 186.076 211.944 186.076C205.76 186.076 200.747 192.669 200.747 200.801C200.747 208.933 205.76 215.526 211.944 215.526Z" fill="#34D186"/>
<path d="M359.948 252.923H369.753L374.418 225.382L359.947 225.382L359.948 252.923Z" fill="#FFB8B8"/>
<path d="M357.447 249.456L376.756 249.455H376.757C378.373 249.455 379.973 249.8 381.466 250.469C382.959 251.139 384.316 252.121 385.458 253.358C386.601 254.596 387.507 256.065 388.126 257.682C388.744 259.299 389.063 261.032 389.063 262.782V263.215L357.448 263.216L357.447 249.456Z" fill="#2F2E41"/>
<path d="M371.329 241.619C371.215 241.619 371.1 241.613 370.985 241.601L357.416 240.531C356.867 240.476 356.337 240.285 355.868 239.973C355.398 239.661 355 239.237 354.706 238.732C354.412 238.227 354.228 237.656 354.17 237.063C354.111 236.469 354.18 235.869 354.369 235.309L372.529 191.122C372.659 190.728 372.712 190.309 372.685 189.892C372.658 189.475 372.551 189.068 372.372 188.698C372.193 188.323 371.943 187.993 371.639 187.731C371.334 187.468 370.981 187.278 370.604 187.174C362.065 184.756 340.155 178.319 321.189 170.788C313.064 167.561 307.946 162.897 305.979 156.927C303.385 149.057 307.222 141.879 307.387 141.578L307.516 141.342L325.362 143.098L344.709 144.881L387.107 169.504C390.66 171.584 393.358 175.038 394.665 179.177C395.972 183.316 395.792 187.836 394.16 191.837L374.613 239.309C374.33 239.996 373.87 240.58 373.287 240.99C372.704 241.4 372.024 241.619 371.329 241.619Z" fill="#2F2E41"/>
<path d="M328.465 55.6778C339.314 55.6778 348.108 46.1532 348.108 34.404C348.108 22.6548 339.314 13.1302 328.465 13.1302C317.617 13.1302 308.822 22.6548 308.822 34.404C308.822 46.1532 317.617 55.6778 328.465 55.6778Z" fill="#FFB8B8"/>
<path d="M354.35 255.521H364.155L368.82 227.98L354.348 227.981L354.35 255.521Z" fill="#FFB8B8"/>
<path d="M351.849 252.054L371.158 252.054H371.159C372.775 252.053 374.375 252.398 375.868 253.068C377.361 253.738 378.717 254.719 379.86 255.957C381.003 257.194 381.909 258.663 382.528 260.28C383.146 261.897 383.464 263.63 383.464 265.38V265.814L351.849 265.815L351.849 252.054Z" fill="#2F2E41"/>
<path d="M365.731 244.217C365.617 244.217 365.502 244.212 365.387 244.2L351.818 243.13C351.269 243.075 350.739 242.884 350.269 242.572C349.799 242.26 349.402 241.835 349.108 241.331C348.813 240.826 348.63 240.255 348.571 239.661C348.513 239.068 348.581 238.468 348.771 237.907L366.931 193.721C367.061 193.327 367.114 192.908 367.087 192.491C367.06 192.073 366.953 191.667 366.774 191.296C366.595 190.921 366.345 190.592 366.04 190.329C365.735 190.066 365.383 189.877 365.005 189.772C356.466 187.355 334.557 180.918 315.591 173.386C307.466 170.159 302.348 165.496 300.381 159.526C297.787 151.655 301.624 144.477 301.789 144.176L301.917 143.94L319.764 145.697L339.111 147.479L381.509 172.102C385.061 174.183 387.76 177.636 389.067 181.775C390.374 185.914 390.194 190.434 388.562 194.435L369.015 241.907C368.732 242.595 368.271 243.179 367.689 243.589C367.106 243.999 366.426 244.217 365.731 244.217Z" fill="#2F2E41"/>
<path d="M334.523 67.7409L313.729 59.9454C313.729 59.9454 300.676 70.8071 306.947 97.752C310.221 111.657 309.267 126.334 304.227 139.605C303.621 141.247 302.921 142.847 302.133 144.396C302.133 144.396 325.326 174.711 346.919 152.191L338.522 108.45C338.522 108.45 351.718 79.434 334.523 67.7409Z" fill="#34D186"/>
<path d="M330.904 56.4013C328.108 51.8693 325.902 45.5851 328.98 41.273C332.018 37.0166 338.011 37.6437 342.664 35.7602C349.146 33.1369 352.905 24.8905 351.732 17.5054C350.56 10.1202 345.086 3.99811 338.565 1.49315C332.044 -1.01181 324.69 -0.197135 318.305 2.68748C310.443 6.23847 303.7 13.1076 300.872 21.809C298.045 30.5104 299.556 40.9581 305.422 47.6462C311.712 54.8166 321.582 56.7275 330.713 56.6116" fill="#2F2E41"/>
<path d="M312.632 17.7423C309.109 20.8483 303.734 19.4687 299.953 16.7429C296.171 14.017 293.103 10.1356 289.011 7.99843C281.798 4.23068 273.077 6.73537 266.057 10.9088C259.037 15.0823 252.814 20.848 245.398 24.1231C237.983 27.3982 228.52 27.5601 222.905 21.3759C221.523 25.7118 221.41 30.4038 222.582 34.8117C223.753 39.2197 226.151 43.1289 229.45 46.006C232.748 48.8831 236.786 50.588 241.012 50.888C245.238 51.188 249.447 50.0686 253.064 47.6825C261.189 42.3223 265.677 31.0837 274.79 28.1252C279.833 26.4881 285.248 27.8066 290.345 29.2348C295.442 30.6629 300.756 32.2061 305.9 30.9903C311.043 29.7745 315.854 24.7685 315.2 19.1111L312.632 17.7423Z" fill="#2F2E41"/>
<path d="M423.903 108.522C423.386 107.282 422.624 106.18 421.672 105.294C420.719 104.407 419.599 103.758 418.389 103.391C417.18 103.024 415.91 102.949 414.671 103.171C413.432 103.393 412.253 103.906 411.217 104.675L334.864 86.1157L333.915 106.325L409.266 118.213C410.574 120.013 412.446 121.23 414.527 121.635C416.608 122.04 418.755 121.604 420.559 120.409C422.363 119.214 423.7 117.345 424.316 115.154C424.933 112.963 424.786 110.603 423.903 108.522Z" fill="#FFB8B8"/>
<path d="M348.251 87.9722L343.591 108.431C343.458 109.013 343.211 109.557 342.867 110.026C342.523 110.496 342.089 110.879 341.595 111.151C341.102 111.422 340.56 111.576 340.007 111.6C339.454 111.624 338.902 111.519 338.39 111.292L320.441 103.325C317.694 102.575 315.333 100.675 313.878 98.0425C312.422 95.4096 311.99 92.2589 312.677 89.2816C313.363 86.3043 315.113 83.7436 317.541 82.1615C319.969 80.5794 322.877 80.105 325.627 80.8424L344.876 82.8195C345.427 82.8763 345.96 83.061 346.439 83.3612C346.919 83.6613 347.332 84.0698 347.653 84.5588C347.973 85.0478 348.192 85.6058 348.296 86.1948C348.399 86.7839 348.384 87.3901 348.251 87.9722V87.9722Z" fill="#34D186"/>
<path d="M415.083 124.579C418.174 124.579 420.681 121.864 420.681 118.516C420.681 115.167 418.174 112.453 415.083 112.453C411.991 112.453 409.484 115.167 409.484 118.516C409.484 121.864 411.991 124.579 415.083 124.579Z" fill="#34D186"/>
<path d="M663 315.134C662.999 315.363 662.915 315.583 662.765 315.745C662.615 315.908 662.412 315.999 662.2 316H0.799759C0.58765 316 0.384227 315.909 0.234243 315.746C0.0842595 315.584 0 315.364 0 315.134C0 314.904 0.0842595 314.684 0.234243 314.521C0.384227 314.359 0.58765 314.268 0.799759 314.268H662.2C662.412 314.268 662.615 314.36 662.765 314.522C662.915 314.684 662.999 314.904 663 315.134Z" fill="#3F3D56"/>
</g>
<defs>
<clipPath id="clip0_6_3">
<rect width="663" height="316" fill="white"/>
</clipPath>
</defs>
</svg>
